<svg width="2400" height="2400" style="position:fixed"><path d="M400 0h1600a400 400 0 0 1 400 400v1600a400 400 0 0 1-400 400H400A400 400 0 0 1 0 2000V400A400 400 0 0 1 400 0" fill="#fff"/><path d="m881.244 128.368 984.808 173.648a100 100 0 0 1 81.116 115.846L1634.6 2190.516a100 100 0 0 1-115.845 81.116l-984.808-173.648a100 100 0 0 1-81.116-115.846L765.399 209.484a100 100 0 0 1 115.845-81.116" fill="#fff" stroke="green" stroke-width="80"/><path d="M700 200h1000a100 100 0 0 1 100 100v1800a100 100 0 0 1-100 100H700a100 100 0 0 1-100-100V300a100 100 0 0 1 100-100" fill="#fff" stroke="#c00000" stroke-width="80"/><path d="m533.948 302.016 984.808-173.648a100 100 0 0 1 115.845 81.116l312.567 1772.654a100 100 0 0 1-81.116 115.846l-984.808 173.648a100 100 0 0 1-115.845-81.116L452.832 417.862a100 100 0 0 1 81.116-115.846" fill="#fff" stroke="purple" stroke-width="80"/><path d="M943.458 484.668c165.632-56.487 427.48-48.528 517.566 147.349s-64.517 667.207-35.396 837.47c57.55 221.206 391.202 288.166 161.455 401.287s-498.116 80.297-595.324-65.352 110.674-507.366 51.14-772.991-134.967-261.566-251.127-281.375-13.945-209.9 151.686-266.388" fill="purple"/></svg>